<svg height="496pt" viewBox="0 -32 496 496" width="496pt" xmlns="http://www.w3.org/2000/svg"><path d="m447.519531 224.566406c.28125-2.847656.480469-5.695312.480469-8.566406 0-48.519531-39.480469-88-88-88-6.953125 0-13.726562.976562-20.304688 2.535156-6.449218-15.558594-19.550781-27.390625-35.742187-32.175781.03125-.800781.046875-1.582031.046875-2.359375 0-35.289062-28.710938-64-64-64-11.0625 0-21.480469 2.824219-30.566406 7.792969-16.195313-24.671875-43.523438-39.792969-73.433594-39.792969-48.519531 0-88 39.480469-88 88 0 2.871094.199219 5.71875.480469 8.566406-27.328125 3.699219-48.480469 27.113282-48.480469 55.433594 0 30.871094 25.121094 56 56 56h138.105469c-1.328125 5.128906-2.105469 10.464844-2.105469 16 0 .785156.015625 1.566406.054688 2.375-23.292969 6.960938-40.054688 28.800781-40.054688 53.625 0 30.871094 25.121094 56 56 56h.265625c-.167969 1.3125-.265625 2.640625-.265625 4 0 15.441406 12.558594 28 28 28s28-12.558594 28-28v-4h120.265625c-.167969 1.3125-.265625 2.640625-.265625 4 0 15.441406 12.558594 28 28 28s28-12.558594 28-28v-4c30.878906 0 56-25.128906 56-56 0-28.320312-21.152344-51.734375-48.480469-55.433594zm-391.519531-32.566406c-22.054688 0-40-17.945312-40-40s17.945312-40 40-40 40 17.945312 40 40h16c0-27.960938-20.625-51.136719-47.441406-55.273438-.351563-2.886718-.558594-5.796874-.558594-8.726562 0-39.703125 32.304688-72 72-72 24.726562 0 47.289062 12.640625 60.488281 33.207031-12.566406 11.6875-20.488281 28.3125-20.488281 46.792969h16c0-26.472656 21.527344-48 48-48s48 21.527344 48 48c0 2.246094-.199219 4.59375-.640625 7.382812l-1.230469 7.929688 7.933594 1.199219c13.5625 2.074219 24.832031 10.847656 30.328125 23.007812-15.300781 6.761719-28.414063 17.914063-37.832031 32.265625-9.078125-4.960937-19.496094-7.785156-30.558594-7.785156-23.625 0-44.257812 12.902344-55.34375 32zm192 148c0 6.617188-5.382812 12-12 12s-12-5.382812-12-12.679688c0-4.183593 2.230469-8.136718 5.832031-10.289062l18.167969-10.902344zm176 0c0 6.617188-5.382812 12-12 12s-12-5.382812-12-12.679688c0-4.183593 2.230469-8.136718 5.832031-10.289062l18.167969-10.902344zm16-20v-30.128906l-42.40625 25.441406c-2.160156 1.296875-4.105469 2.886719-5.808594 4.6875h-127.785156v-30.128906l-42.40625 25.441406c-2.160156 1.296875-4.105469 2.886719-5.808594 4.6875h-7.785156c-22.054688 0-40-17.945312-40-40 0-19.558594 14.59375-36.535156 33.9375-39.488281l7.933594-1.199219-1.230469-7.929688c-.441406-2.789062-.640625-5.136718-.640625-7.382812 0-26.472656 21.527344-48 48-48s48 21.527344 48 48h16c0-18.480469-7.921875-35.105469-20.488281-46.792969 13.199219-20.566406 35.761719-33.207031 60.488281-33.207031 39.695312 0 72 32.296875 72 72 0 2.929688-.207031 5.839844-.558594 8.726562-26.816406 4.136719-47.441406 27.3125-47.441406 55.273438h16c0-22.054688 17.945312-40 40-40s40 17.945312 40 40-17.945312 40-40 40zm0 0"/><path d="m272 404c0 15.441406 12.558594 28 28 28s28-12.558594 28-28v-50.128906l-42.40625 25.441406c-8.386719 5.039062-13.59375 14.230469-13.59375 24.6875zm21.832031-10.96875 18.167969-10.902344v21.871094c0 6.617188-5.382812 12-12 12s-12-5.382812-12-12.679688c0-4.183593 2.230469-8.136718 5.832031-10.289062zm0 0"/><path d="m0 268c0 15.441406 12.558594 28 28 28s28-12.558594 28-28v-50.128906l-42.40625 25.441406c-8.386719 5.039062-13.59375 14.230469-13.59375 24.6875zm21.832031-10.96875 18.167969-10.902344v21.871094c0 6.617188-5.382812 12-12 12s-12-5.382812-12-12.679688c0-4.183593 2.230469-8.136718 5.832031-10.289062zm0 0"/><path d="m64 364c0 15.441406 12.558594 28 28 28s28-12.558594 28-28v-50.128906l-42.40625 25.441406c-8.386719 5.039062-13.59375 14.230469-13.59375 24.6875zm21.832031-10.96875 18.167969-10.902344v21.871094c0 6.617188-5.382812 12-12 12s-12-5.382812-12-12.679688c0-4.183593 2.230469-8.136718 5.832031-10.289062zm0 0"/></svg>