<svg id="Capa_1" enable-background="new 0 0 512 512" height="512" viewBox="0 0 512 512" width="512" xmlns="http://www.w3.org/2000/svg"><g id="XMLID_579_"><g id="XMLID_1439_"><path id="XMLID_135_" d="m390.476 300c-25.199 0-49.152-9.641-67.238-26.77-18.086 17.129-42.039 26.77-67.238 26.77s-49.152-9.641-67.238-26.77c-18.086 17.129-42.038 26.77-67.238 26.77-53.946 0-97.835-43.889-97.835-97.835 0-40.973 25.891-77.668 63.823-91.747 1.363-26.194 15.798-49.883 38.901-63.061 15.388-8.777 33.47-12.017 50.917-9.119 12.87 2.137 25.003 7.526 35.171 15.497 23.124-33.43 61.332-53.735 102.466-53.735 16.322 0 32.196 3.112 47.18 9.25 5.111 2.094 7.557 7.934 5.463 13.044s-7.934 7.557-13.044 5.463c-12.567-5.147-25.89-7.757-39.599-7.757-38.087 0-73.188 20.744-91.606 54.137-1.561 2.83-4.392 4.73-7.602 5.104-3.209.374-6.402-.828-8.57-3.224-17.882-19.763-47.688-24.51-70.866-11.288-18.793 10.72-29.85 30.831-28.854 52.483.213 4.637-2.792 8.811-7.257 10.079-33.28 9.453-56.522 40.242-56.522 74.874 0 42.918 34.917 77.835 77.835 77.835 23.023 0 44.742-10.119 59.585-27.763 1.9-2.258 4.701-3.562 7.652-3.562s5.752 1.304 7.652 3.562c14.844 17.644 36.563 27.763 59.586 27.763s44.742-10.119 59.585-27.763c1.9-2.258 4.701-3.562 7.652-3.562s5.752 1.304 7.652 3.562c14.845 17.644 36.563 27.763 59.587 27.763 42.918 0 77.835-34.917 77.835-77.835 0-29.754-16.577-56.475-43.263-69.733-3.371-1.675-5.516-5.101-5.55-8.864-.124-13.508-2.784-26.63-7.908-39.001-2.113-5.103.31-10.952 5.412-13.065 5.104-2.116 10.952.31 13.065 5.412 5.348 12.911 8.445 26.5 9.233 40.473 30.38 17.458 49.01 49.413 49.01 84.78.001 53.944-43.888 97.833-97.834 97.833z"/></g><g id="XMLID_1234_"><path id="XMLID_132_" d="m95 512c-1.727 0-3.453-.447-5-1.34l-31-17.898c-3.094-1.786-5-5.087-5-8.66v-35.795c0-3.573 1.906-6.874 5-8.66l31-17.898c3.094-1.786 6.906-1.786 10 0l31 17.898c3.094 1.786 5 5.087 5 8.66v35.795c0 3.573-1.906 6.874-5 8.66l-31 17.898c-1.547.893-3.273 1.34-5 1.34zm-21-33.671 21 12.125 21-12.125v-24.249l-21-12.125-21 12.125z"/></g><g id="XMLID_1230_"><path id="XMLID_129_" d="m163.667 416.024c-1.727 0-3.453-.447-5-1.34l-31-17.898c-3.094-1.786-5-5.087-5-8.66v-35.796c0-3.573 1.906-6.874 5-8.66l31-17.898c3.094-1.786 6.906-1.786 10 0l31 17.898c3.094 1.786 5 5.087 5 8.66v35.796c0 3.573-1.906 6.874-5 8.66l-31 17.898c-1.547.893-3.274 1.34-5 1.34zm-21-33.671 21 12.125 21-12.125v-24.249l-21-12.125-21 12.125z"/></g><g id="XMLID_1233_"><path id="XMLID_126_" d="m348.333 416.024c-1.727 0-3.453-.447-5-1.34l-31-17.898c-3.094-1.786-5-5.087-5-8.66v-35.796c0-3.573 1.906-6.874 5-8.66l31-17.898c3.094-1.786 6.906-1.786 10 0l31 17.898c3.094 1.786 5 5.087 5 8.66v35.796c0 3.573-1.906 6.874-5 8.66l-31 17.898c-1.546.893-3.273 1.34-5 1.34zm-21-33.671 21 12.125 21-12.125v-24.249l-21-12.125-21 12.125z"/></g><g id="XMLID_1235_"><path id="XMLID_123_" d="m256.127 512c-1.727 0-3.453-.447-5-1.34l-31-17.898c-3.094-1.786-5-5.087-5-8.66v-35.795c0-3.573 1.906-6.874 5-8.66l31-17.898c3.094-1.786 6.906-1.786 10 0l31 17.898c3.094 1.786 5 5.087 5 8.66v35.795c0 3.573-1.906 6.874-5 8.66l-31 17.898c-1.547.893-3.273 1.34-5 1.34zm-21-33.671 21 12.125 21-12.125v-24.249l-21-12.125-21 12.125z"/></g><g id="XMLID_1237_"><path id="XMLID_120_" d="m417.254 512c-1.727 0-3.453-.447-5-1.34l-31-17.898c-3.094-1.786-5-5.087-5-8.66v-35.795c0-3.573 1.906-6.874 5-8.66l31-17.898c3.094-1.786 6.906-1.786 10 0l31 17.898c3.094 1.786 5 5.087 5 8.66v35.795c0 3.573-1.906 6.874-5 8.66l-31 17.898c-1.547.893-3.274 1.34-5 1.34zm-21-33.671 21 12.125 21-12.125v-24.249l-21-12.125-21 12.125z"/></g><g id="XMLID_1229_"><path id="XMLID_119_" d="m64 405.667c-5.523 0-10-4.477-10-10v-68.333c0-5.523 4.477-10 10-10s10 4.477 10 10v68.333c0 5.522-4.477 10-10 10z"/></g><g id="XMLID_1243_"><path id="XMLID_118_" d="m448 405.667c-5.523 0-10-4.477-10-10v-68.333c0-5.523 4.477-10 10-10s10 4.477 10 10v68.333c0 5.522-4.477 10-10 10z"/></g><g id="XMLID_1242_"><path id="XMLID_117_" d="m256 390.332c-5.523 0-10-4.477-10-10v-41.9c0-5.523 4.477-10 10-10s10 4.477 10 10v41.9c0 5.522-4.477 10-10 10z"/></g><g id="XMLID_503_"><path id="XMLID_116_" d="m395.95 53.24c-2.63 0-5.21-1.07-7.07-2.93s-2.93-4.44-2.93-7.07 1.07-5.21 2.93-7.08c1.86-1.86 4.44-2.92 7.07-2.92s5.21 1.06 7.07 2.92c1.86 1.87 2.93 4.44 2.93 7.08 0 2.63-1.07 5.21-2.93 7.07s-4.44 2.93-7.07 2.93z"/></g></g></svg>