<?xml version="1.0" encoding="iso-8859-1"?>
<!-- Generator: Adobe Illustrator 19.0.0, SVG Export Plug-In . SVG Version: 6.00 Build 0)  -->
<svg version="1.1" id="Capa_1" xmlns="http://www.w3.org/2000/svg" xmlns:xlink="http://www.w3.org/1999/xlink" x="0px" y="0px"
	 viewBox="0 0 508 508" style="enable-background:new 0 0 508 508;" xml:space="preserve">
<g>
	<g>
		<path d="M467,338.75c-0.6-35.5-16.8-67.2-42-88.8c5.9-12.9,9.2-26.9,9.2-41.1c0-54.2-44.1-98.3-98.3-98.3
			c-39.2,0-74.3,23.3-89.9,58.7c-16.8-6.3-34.9-9.7-53.5-9.7c-83.5,0-151.5,67.6-151.5,150.7c0,9,0.9,18.2,2.6,27.4
			c-26,10.4-43.6,35.8-43.6,64.2c0,38.2,31.2,69.3,69.6,69.3h368.7c38.4,0,69.6-31.1,69.6-69.3C508,374.55,491.8,349.85,467,338.75z
			 M335.9,126.95c45.2,0,81.9,36.8,81.9,81.9c0,10.7-2.2,21.2-6.2,31c-18.9-12.2-41.4-19.3-65.5-19.3c-9.9,0-19.7,1.2-29.3,3.6
			c-14.5-20.8-33.8-37.2-55.8-48.3C274,146.35,303.3,126.95,335.9,126.95z M438.4,454.65H69.6c-29.4,0-53.3-23.7-53.3-52.9
			c0-44.2,46.6-53,46.6-53s-5.6-15.6-5.6-38.6c0-74,60.7-134.3,135.2-134.3c82.2,0,117.2,67.4,117.2,67.4s15.4-6.3,36.4-6.3
			c57.6,0,104.5,46.5,104.5,103.8c0,0.5-0.3,9.2-0.3,9.2s41.3,8.6,41.3,51.8C491.6,430.95,467.7,454.65,438.4,454.65z"/>
	</g>
</g>
<g>
	<g>
		<rect x="327.7" y="36.85" width="16.4" height="49.2"/>
	</g>
</g>
<g>
	<g>
		<rect x="223.455" y="80.086" transform="matrix(0.7071 -0.7072 0.7072 0.7071 -6.1687 194.484)" width="16.401" height="49.203"/>
	</g>
</g>
<g>
	<g>
		<rect x="458.8" y="200.65" width="49.2" height="16.4"/>
	</g>
</g>
<g>
	<g>
		<polygon points="283.9,61.95 268.8,68.15 281.3,98.45 296.5,92.25 		"/>
	</g>
</g>
<g>
	<g>
		<rect x="372.767" y="72.03" transform="matrix(0.3828 -0.9238 0.9238 0.3828 166.0701 409.039)" width="32.799" height="16.4"/>
	</g>
</g>
<g>
	<g>
		<rect x="456.385" y="245.731" transform="matrix(0.3828 -0.9238 0.9238 0.3828 44.5738 590.9813)" width="16.4" height="32.799"/>
	</g>
</g>
<g>
	<g>
		
			<rect x="448.244" y="147.391" transform="matrix(0.9239 -0.3827 0.3827 0.9239 -24.1729 189.6592)" width="32.801" height="16.4"/>
	</g>
</g>
<g>
	<g>
		<rect x="415.552" y="96.427" transform="matrix(0.7071 -0.7071 0.7071 0.7071 54.9352 341.8794)" width="49.2" height="16.4"/>
	</g>
</g>
<g>
	<g>
		<path d="M81.9,307.25h16.4c0-49.7,40.4-90.1,90.1-90.1v-16.4C129.7,200.65,81.9,248.45,81.9,307.25z"/>
	</g>
</g>
<g>
</g>
<g>
</g>
<g>
</g>
<g>
</g>
<g>
</g>
<g>
</g>
<g>
</g>
<g>
</g>
<g>
</g>
<g>
</g>
<g>
</g>
<g>
</g>
<g>
</g>
<g>
</g>
<g>
</g>
</svg>
